HIERARCHY
ROOT Hips
{
    OFFSET 0.000000 0.000000 0.000000
    CHANNELS 6 Xposition Yposition Zposition Zrotation Xrotation Yrotation
    JOINT Chest
    {
        OFFSET -0.000000 0.071157 0.000000
        CHANNELS 3 Zrotation Xrotation Yrotation
        JOINT Chest2
        {
            OFFSET -0.000000 0.200496 0.000000
            CHANNELS 3 Zrotation Xrotation Yrotation
            JOINT Neck
            {
                OFFSET -0.000000 0.217851 0.000000
                CHANNELS 3 Zrotation Xrotation Yrotation
                JOINT Head
                {
                    OFFSET -0.000000 0.094152 0.017355
                    CHANNELS 3 Zrotation Xrotation Yrotation
                    End Site
                    {
                        OFFSET -0.000000 0.173553 0.000000
                    }
                }
            }
            JOINT LeftCollar
            {
                OFFSET 0.034349 0.184703 -0.001098
                CHANNELS 3 Zrotation Xrotation Yrotation
                JOINT LeftShoulder
                {
                    OFFSET 0.100089 0.000000 0.000000
                    CHANNELS 3 Zrotation Xrotation Yrotation
                    JOINT LeftElbow
                    {
                        OFFSET 0.265196 0.000000 0.000000
                        CHANNELS 3 Zrotation Xrotation Yrotation
                        JOINT LeftWrist
                        {
                            OFFSET 0.220131 0.000000 0.000000
                            CHANNELS 3 Zrotation Xrotation Yrotation
                            End Site
                            {
                                OFFSET 0.000000 -0.130165 0.000000
                            }
                        }
                    }
                }
            }
            JOINT RightCollar
            {
                OFFSET -0.035053 0.184703 -0.001098
                CHANNELS 3 Zrotation Xrotation Yrotation
                JOINT RightShoulder
                {
                    OFFSET -0.100089 0.000000 0.000000
                    CHANNELS 3 Zrotation Xrotation Yrotation
                    JOINT RightElbow
                    {
                        OFFSET -0.265196 0.000000 0.000000
                        CHANNELS 3 Zrotation Xrotation Yrotation
                        JOINT RightWrist
                        {
                            OFFSET -0.220131 0.000000 0.000000
                            CHANNELS 3 Zrotation Xrotation Yrotation
                            End Site
                            {
                                OFFSET -0.000000 -0.130165 0.000000
                            }
                        }
                    }
                }
            }
        }
    }
    JOINT LeftHip
    {
        OFFSET 0.086776 0.000000 0.000000
        CHANNELS 3 Zrotation Xrotation Yrotation
        JOINT LeftKnee
        {
            OFFSET -0.000000 -0.397777 0.000000
            CHANNELS 3 Zrotation Xrotation Yrotation
            JOINT LeftAnkle
            {
                OFFSET -0.000000 -0.331973 0.000000
                CHANNELS 3 Zrotation Xrotation Yrotation
                JOINT LeftToe
                {
                    OFFSET -0.000000 -0.056405 0.130165
                    CHANNELS 3 Zrotation Xrotation Yrotation
                    End Site
                    {
                        OFFSET -0.000000 0.000000 0.034711
                    }
                }
            }
        }
    }
    JOINT RightHip
    {
        OFFSET -0.086776 0.000000 0.000000
        CHANNELS 3 Zrotation Xrotation Yrotation
        JOINT RightKnee
        {
            OFFSET -0.000000 -0.397777 0.000000
            CHANNELS 3 Zrotation Xrotation Yrotation
            JOINT RightAnkle
            {
                OFFSET -0.000000 -0.331973 0.000000
                CHANNELS 3 Zrotation Xrotation Yrotation
                JOINT RightToe
                {
                    OFFSET -0.000000 -0.056405 0.130165
                    CHANNELS 3 Zrotation Xrotation Yrotation
                    End Site
                    {
                        OFFSET -0.000000 0.000000 0.034711
                    }
                }
            }
        }
    }
}
MOTION
Frames:    14
Frame Time:    0.016667
-0.312242    0.815933    1.126776    -0.253749    1.191924    158.151245    1.417665    -2.070088    -1.098359    -0.741900    0.171687    -0.374423    -6.023962    14.385330    2.996507    1.274077    -1.260497    1.381210    10.494138    1.159055    3.179204    -22.244534    6.440744    7.034275    -0.205908    -9.423390    2.021099    90.489174    -0.307415    9.421134    -15.380472    2.438657    -0.577772    28.187265    2.028416    -1.329338    -3.338612    1.913597    -1.699273    -93.290405    3.397991    1.961767    1.777430    -1.131974    1.054253    -5.898683    14.504215    1.130591    2.033322    -10.783204    10.300459    0.000000    0.000000    0.000000    2.309641    -1.546591    -0.637890    -0.040949    12.589154    -2.659607    -2.622935    -8.775352    -1.427237    0.000000    0.000000    0.000000    
-0.312222    0.815916    1.127008    -0.228721    1.213729    158.161942    1.388891    -1.999699    -1.086748    -0.680010    0.129720    -0.370323    -6.041333    14.424233    3.001671    1.329727    -1.303579    1.373894    10.463745    1.252359    3.215394    -22.220276    6.447876    6.956611    -0.183618    -9.463661    2.030868    90.347946    -0.269667    9.461278    -15.372716    2.464560    -0.602557    28.047997    1.870506    -1.300966    -3.123613    1.971259    -1.689986    -93.441490    3.343441    2.025717    1.768288    -1.092713    0.889592    -5.880893    14.440669    1.615546    1.803471    -10.751082    9.991354    0.000000    0.000000    0.000000    2.343009    -1.538214    -0.618089    -0.055507    12.613320    -2.699261    -2.689382    -8.752865    -1.417742    0.000000    0.000000    0.000000    
-0.312240    0.815959    1.127017    -0.220223    1.228351    158.161560    1.372847    -1.985759    -1.074792    -0.650452    0.142154    -0.366184    -5.859610    14.432931    2.977193    1.065716    -1.328260    1.426796    10.488794    1.232862    3.135279    -19.465069    -4.430264    5.800885    -2.972048    -4.050601    5.097223    91.802505    -2.168916    3.952756    -15.359165    2.448559    -0.620647    28.011795    1.850690    -1.297442    -3.137545    1.969507    -1.646457    -93.547958    3.410294    2.030130    1.793867    -1.079971    0.874184    -5.936408    14.442432    1.537979    1.821618    -10.792377    10.139020    0.000000    0.000000    0.000000    2.355367    -1.528551    -0.682042    -0.091360    12.626180    -2.614411    -2.657121    -8.764984    -1.432098    0.000000    0.000000    0.000000    
-0.312284    0.816063    1.126957    -0.223812    1.262527    158.150040    1.323353    -2.009392    -1.034400    -0.573916    0.225640    -0.352126    -5.861712    14.463977    2.984693    1.071824    -1.413441    1.432494    10.393311    1.254103    3.088592    -22.278372    6.937477    7.144891    -0.168360    -9.752680    1.852786    90.307121    -0.355929    9.750971    -15.389386    2.456380    -0.644952    28.095560    1.930028    -1.272973    -3.392270    1.935083    -1.630642    -93.390465    3.476907    1.989798    1.685811    -1.000579    1.101517    -5.649804    14.308876    1.468282    1.873857    -10.710259    9.778666    0.000000    0.000000    0.000000    2.325706    -1.480321    -0.615999    -0.054927    12.580498    -2.647159    -2.605966    -8.759269    -1.463468    0.000000    0.000000    0.000000    
-0.312315    0.816057    1.127045    -0.215616    1.272245    158.165070    1.322102    -1.973726    -1.036511    -0.542251    0.194687    -0.353011    -6.008909    14.479333    3.026677    1.286337    -1.431633    1.411854    10.400790    1.258094    3.074875    -22.337078    7.054276    7.186934    -0.097009    -9.790358    1.840397    90.322533    -0.385109    9.789922    -15.445032    2.483139    -0.658086    28.136625    2.025470    -1.216375    -3.433400    1.886515    -1.671572    -93.211433    3.455476    1.933381    1.692484    -0.996341    1.084111    -5.660080    14.310666    1.459820    1.808452    -10.751562    9.847060    0.000000    0.000000    0.000000    2.327629    -1.468549    -0.615901    -0.049439    12.570791    -2.644099    -2.636237    -8.722152    -1.452952    0.000000    0.000000    0.000000    
-0.312287    0.815886    1.127489    -0.201619    1.189138    158.248138    1.341158    -1.981173    -1.087089    -0.514615    0.122022    -0.370413    -6.025894    14.488483    3.052589    1.325730    -1.439447    1.429181    10.433068    1.252774    3.044459    -22.364616    7.000140    7.227512    -0.070565    -9.786299    1.863906    90.320587    -0.363343    9.786197    -15.437319    2.496158    -0.676197    28.105888    2.086419    -1.177541    -3.404999    1.846469    -1.702846    -93.157944    3.422877    1.890274    1.842034    -1.211491    1.147470    -5.851923    14.620554    1.082329    1.782029    -10.887938    10.240578    0.000000    0.000000    0.000000    2.393424    -1.568923    -0.693118    -0.071380    12.590464    -2.691552    -2.678797    -8.732014    -1.430461    0.000000    0.000000    0.000000    
-0.312384    0.815890    1.127269    -0.210053    1.237843    158.218246    1.378747    -1.997080    -1.046998    -0.572004    0.181566    -0.356898    -6.026225    14.482057    3.053557    1.288934    -1.411578    1.434444    10.430948    1.245155    3.025562    -22.351971    7.068824    7.232966    -0.057890    -9.832900    1.874843    90.039406    -0.357850    9.832107    -15.438884    2.506801    -0.673569    28.089373    2.091594    -1.173287    -3.395367    1.827282    -1.708287    -93.113228    3.464818    1.870852    1.789300    -1.118945    1.137936    -5.833509    14.544287    1.148989    1.938028    -10.812658    10.140824    0.000000    0.000000    0.000000    2.337227    -1.500112    -0.690781    -0.042002    12.560987    -2.643886    -2.719783    -8.735042    -1.430795    0.000000    0.000000    0.000000    
-0.312439    0.815986    1.127257    -0.229946    1.244294    158.187866    1.393634    -2.014083    -1.017832    -0.603037    0.211097    -0.347237    -6.055806    14.455790    3.075121    1.273624    -1.396402    1.451976    10.386067    1.282233    3.051773    -22.276154    7.016113    7.207633    -0.013929    -9.846678    1.872492    90.086632    -0.407024    9.846777    -15.403641    2.495976    -0.633043    28.026941    2.092718    -1.207167    -3.377411    1.835368    -1.708402    -93.083481    3.486743    1.878924    1.632187    -1.014569    1.142008    -5.518741    14.230174    1.557813    1.808418    -10.706255    9.576635    0.000000    0.000000    0.000000    2.306913    -1.502974    -0.645673    -0.023197    12.596828    -1.918673    -2.775697    -8.776661    -2.255961    0.000000    0.000000    0.000000    
-0.312483    0.816051    1.127237    -0.232635    1.266800    158.170349    1.408872    -2.002017    -0.996627    -0.626647    0.225499    -0.340026    -5.923666    14.462808    3.050783    0.994869    -1.416194    1.493751    10.377901    1.295496    3.070516    -22.225163    6.888280    7.184835    -0.008700    -9.753087    1.860204    89.888283    -0.459057    9.752510    -15.393550    2.479467    -0.598268    27.848997    1.815881    -1.259674    -3.046617    1.972589    -1.653280    -93.373093    3.507649    2.032014    1.672972    -1.043402    1.334242    -5.591216    14.379025    1.086114    2.089790    -10.741521    9.880172    0.000000    0.000000    0.000000    2.293447    -1.489985    -0.703667    -0.031409    12.601891    -1.800237    -2.664445    -8.835588    -2.422721    0.000000    0.000000    0.000000    
-0.312561    0.815995    1.127408    -0.221701    1.259606    158.178741    1.446017    -1.969888    -0.989795    -0.644271    0.191676    -0.337905    -5.942759    14.453505    3.053786    0.939701    -1.382297    1.498509    10.411995    1.291952    3.055287    -22.270939    6.925920    7.206958    -0.005371    -9.798650    1.899782    89.884583    -0.435922    9.798133    -15.348947    2.472488    -0.613301    27.789858    1.806843    -1.252171    -3.056430    1.998477    -1.646854    -93.467949    3.492731    2.060337    1.685325    -1.043532    1.070512    -5.663741    14.328869    1.470456    1.902065    -10.734068    9.805838    0.000000    0.000000    0.000000    2.302002    -1.505992    -0.705948    -0.025758    12.618930    -1.852230    -2.777144    -8.797643    -2.257805    0.000000    0.000000    0.000000    
-0.312598    0.815913    1.127546    -0.201110    1.295643    158.197357    1.480581    -1.893860    -0.991865    -0.677109    0.156902    -0.338543    -5.928957    14.467307    3.049576    0.841218    -1.379025    1.508583    10.446380    1.311529    3.064468    -22.300074    6.948055    7.196465    -0.015793    -9.796655    1.933358    90.067627    -0.479834    9.796686    -15.334715    2.497140    -0.595481    27.796976    1.781631    -1.271157    -3.098671    1.996183    -1.621920    -93.546097    3.397310    2.057566    1.741018    -1.129670    1.171887    -5.762009    14.636856    1.267387    1.804795    -10.842429    10.036432    0.000000    0.000000    0.000000    2.307100    -1.473606    -0.706268    -0.016834    12.627552    -1.877729    -2.886427    -8.805235    -2.214263    0.000000    0.000000    0.000000    
-0.312636    0.815943    1.127639    -0.210673    1.268576    158.187836    1.521290    -1.934113    -0.995894    -0.706957    0.184153    -0.340201    -5.968630    14.450629    3.076057    0.786946    -1.353000    1.532644    10.503674    1.239428    3.095396    -22.417746    7.169044    7.233079    0.066268    -9.880807    1.907384    89.995346    -0.390925    9.881889    -15.343636    2.495377    -0.583426    27.784237    1.805923    -1.222978    -3.072571    1.972601    -1.624470    -93.551994    3.385785    2.034076    1.763017    -1.140966    1.177256    -5.797317    14.574556    1.220649    1.887139    -10.862599    10.066462    0.000000    0.000000    0.000000    2.306076    -1.512307    -0.681093    -0.010990    12.623096    -1.883684    -2.841716    -8.784792    -2.231702    0.000000    0.000000    0.000000    
-0.312562    0.816073    1.127511    -0.207332    1.325896    158.174057    1.521482    -1.929285    -0.982850    -0.713075    0.257409    -0.335478    -6.081939    14.421106    3.107456    0.861854    -1.315346    1.528049    10.469984    1.211767    3.107653    -22.363768    7.058256    7.222691    0.014285    -9.771146    1.917153    90.032951    -0.439333    9.771517    -15.371329    2.478914    -0.575113    27.798607    1.865696    -1.205227    -3.056164    1.978375    -1.624563    -93.474854    3.423510    2.038967    1.611362    -1.021146    1.444265    -5.405293    14.413223    1.199196    1.921622    -10.739117    9.603277    0.000000    0.000000    0.000000    2.293879    -1.436985    -0.657764    -0.012606    12.582194    -1.863149    -2.695286    -8.801081    -2.407759    0.000000    0.000000    0.000000    
-0.312592    0.816044    1.127676    -0.208789    1.326259    158.181351    1.537372    -1.904767    -0.983973    -0.732486    0.237768    -0.335768    -6.007370    14.421999    3.103286    0.700179    -1.259633    1.561756    10.463989    1.253499    3.107943    -22.350447    7.008929    7.216252    -0.004209    -9.811345    1.978961    90.077072    -0.442938    9.811584    -15.325057    2.467942    -0.588397    27.741173    1.918358    -1.170716    -3.040806    2.040673    -1.651348    -93.402443    3.411642    2.098267    1.616375    -1.027328    1.424970    -5.423452    14.402370    1.215684    1.826002    -10.695988    9.629868    0.000000    0.000000    0.000000    2.292415    -1.452849    -0.656691    -0.006931    12.590312    -1.889059    -2.695553    -8.774090    -2.393959    0.000000    0.000000    0.000000    
